<?xml version="1.0" standalone="no"?>
<!DOCTYPE svg PUBLIC "-//W3C//DTD SVG 20010904//EN"
 "http://www.w3.org/TR/2001/REC-SVG-20010904/DTD/svg10.dtd">
<svg version="1.0" xmlns="http://www.w3.org/2000/svg"
 width="92.000000pt" height="92.000000pt" viewBox="0 0 92.000000 92.000000"
 preserveAspectRatio="xMidYMid meet">
<metadata>
Created by potrace 1.14, written by Peter Selinger 2001-2017
</metadata>
<g transform="translate(0.000000,92.000000) scale(0.100000,-0.100000)"
fill="#000000" stroke="none">
<path d="M216 894 c-72 -36 -156 -117 -188 -179 -23 -44 -29 -139 -15 -252 6
-46 4 -62 -5 -65 -10 -4 -10 -9 2 -23 15 -18 16 -31 22 -165 l3 -65 37 -9 c34
-8 37 -12 32 -35 -3 -14 -7 -36 -10 -47 -3 -16 3 -25 25 -34 30 -12 71 -6 71
11 0 5 -7 10 -15 10 -8 1 -21 2 -27 3 -9 1 -12 15 -10 40 1 22 4 41 6 43 2 2
22 5 45 8 l41 4 -2 -55 c-3 -60 7 -74 53 -74 37 0 46 28 11 32 -30 3 -37 22
-27 74 6 34 7 35 51 32 l44 -3 0 -57 0 -57 36 -7 c46 -8 69 15 29 30 -24 9
-27 16 -27 51 0 38 4 43 37 47 49 6 58 -3 59 -56 0 -39 3 -46 20 -47 12 0 30
-2 40 -4 22 -4 56 11 56 25 0 6 -18 10 -40 10 l-40 0 0 40 c0 35 3 40 23 40
51 1 58 28 44 181 -7 76 -7 77 23 109 28 30 34 32 83 28 28 -2 78 -16 110 -31
70 -32 93 -25 103 29 8 43 1 92 -21 138 -16 34 -18 35 -44 22 -61 -32 -167
-38 -206 -12 -13 8 -39 45 -60 81 -43 78 -114 152 -170 180 -50 25 -160 30
-199 9z"/>
</g>
</svg>
